<svg xmlns="http://www.w3.org/2000/svg" width="512" height="512" viewBox="0 0 32 32"><title>Stockwell</title><circle cx="16" cy="16" r="16" fill="#242b27"/><path d="M6 6C11 6 14 10 14 14V18C9 18 6 14 6 10Z" fill="#f8f7f3" transform="rotate(0 16 16)"/><path d="M6 6C11 6 14 10 14 14V18C9 18 6 14 6 10Z" fill="#f8f7f3" transform="rotate(90 16 16)"/><path d="M6 6C11 6 14 10 14 14V18C9 18 6 14 6 10Z" fill="#f8f7f3" transform="rotate(180 16 16)"/><path d="M6 6C11 6 14 10 14 14V18C9 18 6 14 6 10Z" fill="#f8f7f3" transform="rotate(270 16 16)"/></svg>
